<svg width="453" height="288" viewBox="0 0 453 288" fill="none" xmlns="http://www.w3.org/2000/svg">
<path d="M118.501 184.039C118.618 184.609 118.784 185.43 118.983 186.432C119.381 188.437 119.908 191.17 120.426 194.083C120.943 196.997 121.45 200.09 121.807 202.813C122.165 205.542 122.371 207.882 122.292 209.3V209.301C122.215 210.707 121.846 212.184 120.706 213.796C119.561 215.415 117.629 217.183 114.403 219.151C107.973 223.072 96.458 227.75 75.9714 233.623L72.2332 218.903L112.628 199.898L112.721 199.854L112.757 199.757L118.495 184.012C118.497 184.021 118.499 184.03 118.501 184.039Z" fill="white" stroke="black" stroke-width="0.5"/>
<path d="M75.7938 234.207C75.7388 234.207 75.6837 234.193 75.6365 234.164C75.5658 234.129 75.5186 234.071 75.495 233.993L71.6492 218.821C71.6099 218.679 71.6649 218.579 71.8065 218.514L112.254 199.479L118.286 183.043C118.326 182.907 118.428 182.843 118.585 182.857C118.742 182.864 118.829 182.943 118.86 183.079C119.033 183.914 123.154 203.607 122.84 209.357C122.486 216.3 114.354 223.179 75.8961 234.214L75.7938 234.207ZM72.2862 218.886L76.0062 233.586C116.147 222.057 121.967 215.114 122.266 209.314C122.517 204.379 119.348 188.429 118.483 184.2L112.781 199.721C112.757 199.793 112.71 199.843 112.639 199.879L72.2862 218.886Z" fill="black"/>
<path d="M146.74 132.893C146.811 128.271 147.354 115.271 151.058 111.993C151.349 111.736 151.703 111.614 152.112 111.629C152.521 111.643 152.859 111.793 153.134 112.071C154.723 113.679 157.688 118.679 156.422 133.1C156.374 133.55 156.178 133.936 155.847 134.264C155.517 134.593 155.108 134.8 154.621 134.879C152.662 135.207 150.704 135.207 148.746 134.879C148.179 134.821 147.715 134.607 147.33 134.229C146.953 133.85 146.756 133.407 146.74 132.893Z" fill="#2F4156"/>
<path d="M323.866 76.7357L288.263 238.678H174.251L209.839 76.7357H323.866Z" fill="white" stroke="black"/>
<path d="M288.665 239.464H173.629C173.535 239.464 173.456 239.429 173.401 239.364C173.338 239.3 173.315 239.221 173.338 239.143L209.193 76.1572C209.224 76.0072 209.319 75.9357 209.484 75.9357H324.488C324.582 75.9357 324.661 75.9714 324.716 76.0286C324.779 76.1 324.802 76.1786 324.787 76.2643L288.979 239.207C288.971 239.386 288.861 239.471 288.665 239.464ZM173.999 238.914H288.413L324.126 76.5072H209.696L173.999 238.914Z" fill="black"/>
<path d="M306.556 103.393H146.15L151.719 86.7286H311.338L306.556 103.393Z" fill="#2F4156"/>
<path d="M302.412 100.164H142.006C141.904 100.171 141.825 100.136 141.762 100.057C141.707 99.9857 141.691 99.9071 141.715 99.8214L147.283 83.15C147.33 83.0214 147.424 82.9571 147.574 82.9571H307.193C307.288 82.95 307.367 82.9928 307.422 83.0643C307.484 83.1286 307.508 83.2071 307.477 83.2928L302.703 99.9643C302.663 100.1 302.569 100.164 302.412 100.164ZM142.407 99.6214H302.176L306.8 83.5H147.802L142.407 99.6214Z" fill="black"/>
<path d="M261.555 27.8429C262.295 31.3286 259.778 38.7286 259.039 40.4786C258.299 42.2286 258.748 50.0143 258.748 50.0143C258.748 50.0143 235.508 53.6286 238.913 48.95C242.319 44.2643 240.093 34.7 240.982 28.1072C241.862 21.5143 250.458 22.4643 250.458 22.4643C257.56 20.5786 260.816 24.3429 261.555 27.8429Z" fill="black"/>
<path d="M367.468 238.171C367.609 239.207 367.641 240.25 367.578 241.293C366.602 242.1 363.37 243.036 362.104 243.371C362.104 243.371 362.049 243.429 362.025 243.443C359.359 244.35 350.37 244.521 350.48 243.514C350.59 242.5 357.472 239.179 357.472 239.179C357.967 237.321 358.258 235.436 358.368 233.529C358.471 232.264 358.817 228.471 359.241 223.864C358.769 215.914 358.699 199.85 358.699 199.85C359.493 200.429 360.382 200.857 361.349 201.129V200.964C366.563 202.879 374.672 201.536 374.672 201.536C374.672 201.536 369.56 217.6 366.76 226.886C367.004 232.286 367.357 237.079 367.468 238.171Z" fill="#C7876D"/>
<path d="M373.46 123.021C390.338 124.736 384.597 135.421 383.897 138.35C383.197 141.279 380.9 152.664 378.234 153.171C375.568 153.679 363.701 153.471 363.701 153.471L358.809 130.786L352.029 130.579C352.029 130.579 353.484 128.157 355.922 124.329C358.368 120.5 366.264 122.621 366.264 122.621L373.46 123.021Z" fill="#2F4156"/>
<path d="M298.865 73.0143L290.867 63.2L280.352 67.3571C280.352 67.3571 270.883 45.9857 255.342 47.4643L247.493 46.5286C244.89 46.4714 242.374 46.8928 239.959 47.7786C237.537 48.6643 235.413 49.95 233.581 51.6357C227.509 57.2786 222.185 64.1357 221.438 69.1071C220.691 74.0786 220.699 86.3214 239.943 85.7786L240.926 75.5L293.084 76.6357L298.865 73.0143ZM234.47 69.65C235.508 64.8071 237.576 63.8714 237.576 63.8714L237.836 74.2714C235.909 73.6143 233.896 72.3 234.47 69.65Z" fill="#2F4156"/>
<path d="M378.165 153.569C378.262 153.749 378.4 154.012 378.568 154.342C378.903 155.004 379.355 155.935 379.821 157.017C380.697 159.052 381.614 161.597 381.913 163.867L381.965 164.317C382.422 169.162 382.842 175.418 380.355 180.315V180.316C379.081 182.833 377.661 188.125 376.564 192.756C376.014 195.078 375.542 197.245 375.208 198.831C375.042 199.623 374.909 200.272 374.818 200.721C374.772 200.946 374.738 201.122 374.714 201.241C374.713 201.248 374.711 201.255 374.709 201.262C372.204 201.831 369.674 202.026 367.104 201.837L366.578 201.794C363.818 201.542 361.188 200.862 358.694 199.763C358.671 199.696 358.636 199.593 358.589 199.447C358.491 199.142 358.339 198.648 358.121 197.898C357.687 196.398 356.994 193.872 355.96 189.775C354.937 185.718 355.006 180.24 355.429 175.219C355.852 170.206 356.625 165.677 356.995 163.528L356.995 163.522C357.465 160.291 357.715 157.046 357.735 153.781L378.087 153.423C378.109 153.463 378.135 153.512 378.165 153.569Z" fill="white" stroke="black" stroke-width="0.5"/>
<path d="M369.001 202.407C365.25 202.436 361.695 201.7 358.329 200.193C358.258 200.157 358.219 200.107 358.187 200.036C358.187 199.957 357.456 198.014 355.403 189.921C354.019 184.421 354.365 175.529 356.441 163.464C356.913 160.179 357.157 156.879 357.173 153.557C357.173 153.379 357.267 153.293 357.464 153.286L378.234 152.914C378.36 152.921 378.447 152.971 378.502 153.071C378.643 153.329 382.049 159.457 382.481 164.293C382.969 169.614 383.275 175.7 380.83 180.564C378.376 185.429 375.214 201.379 375.183 201.521C375.159 201.636 375.088 201.707 374.963 201.736C373.004 202.186 371.022 202.414 369.001 202.407ZM358.722 199.764C361.2 200.836 363.811 201.5 366.54 201.757C369.269 202.007 371.966 201.843 374.64 201.243C375.002 199.4 377.896 185.043 380.287 180.293C382.67 175.536 382.371 169.55 381.876 164.293C381.49 159.957 378.565 154.414 378.038 153.45L357.763 153.814C357.739 157.071 357.487 160.314 357.016 163.543C354.955 175.529 354.625 184.357 355.977 189.786C357.786 196.871 358.557 199.271 358.722 199.764Z" fill="black"/>
<path d="M341.939 130.479L358.809 130.786L363.701 153.471H346.603L341.939 130.479Z" fill="white"/>
<path d="M363.693 153.743H346.603C346.438 153.743 346.335 153.671 346.304 153.521L341.64 130.529C341.625 130.443 341.64 130.371 341.703 130.307C341.766 130.236 341.845 130.207 341.939 130.214L358.809 130.507C358.974 130.514 359.076 130.586 359.108 130.736L363.984 153.414C364.007 153.5 363.991 153.579 363.929 153.65C363.866 153.707 363.787 153.743 363.693 153.743ZM346.839 153.2H363.323L358.549 131.05L342.285 130.764L346.839 153.2Z" fill="black"/>
<path d="M360.696 148.129C360.696 148.129 352.258 144.8 353.036 143.993C353.555 143.479 354.176 143.307 354.924 143.486C354.924 143.486 351.738 142.764 352.478 141.771C353.217 140.786 354.814 141.471 354.814 141.471C354.814 141.471 353.146 140.064 354.011 139.357C354.884 138.643 359.115 140.8 360.004 141.064C360.893 141.336 359.336 139.05 360.563 138.65C361.789 138.257 363.119 141.471 363.119 141.471L360.696 148.129Z" fill="#C7876D"/>
<path d="M379.626 151.857C378.832 153.629 377.235 153.3 377.235 153.3C371.353 153 360.696 148.157 360.696 148.157C360.846 145.736 361.656 143.514 363.142 141.5L373.484 144.529L376.04 136.264" fill="#2F4156"/>
<path d="M377.55 153.564C377.424 153.579 377.29 153.579 377.165 153.564C371.345 153.279 361.003 148.6 360.563 148.407C360.445 148.35 360.39 148.264 360.397 148.15C360.539 145.671 361.373 143.407 362.89 141.35C362.977 141.25 363.095 141.214 363.229 141.25L373.264 144.186L375.725 136.193C375.78 136.021 375.898 135.957 376.095 136C376.284 136.05 376.355 136.164 376.307 136.343L373.751 144.607C373.728 144.679 373.681 144.736 373.602 144.771C373.523 144.8 373.453 144.8 373.374 144.771L363.26 141.814C361.939 143.693 361.184 145.75 361.011 147.971C362.419 148.6 371.911 152.736 377.251 153.036C377.369 153.036 378.627 153.307 379.343 151.793C379.43 151.621 379.556 151.571 379.744 151.643C379.933 151.714 379.988 151.836 379.894 152C379.729 152.457 379.43 152.836 378.997 153.121C378.565 153.407 378.085 153.557 377.55 153.564Z" fill="black"/>
<path d="M365.25 106.936C365.25 106.936 364.581 101.25 367.546 100.707C369.339 100.371 369.701 101.514 371.195 101.314C372.682 101.114 374.687 100.164 376.842 101.114C377.471 101.379 377.998 101.764 378.423 102.271C378.84 102.771 379.115 103.336 379.225 103.957C379.225 103.957 382.347 96.9857 388.733 101.729C393.35 105.714 386.956 110.864 383.165 109.986C383.165 109.986 384.502 114.321 380.342 116.493C376.182 118.657 374.247 119.379 373.578 120.829C372.91 122.271 369.111 115.179 369.111 115.179L365.25 106.936Z" fill="black"/>
<path d="M369.685 104.871C369.465 107.693 374.349 111.729 374.349 111.729C374.349 111.729 377.975 111.007 377.086 113.807C376.197 116.614 374.129 115.757 374.129 115.757L373.248 123.85L368.577 128.686L366.139 123.45L367.916 118.393C359.697 116.979 365.25 106.893 365.25 106.893C367.688 106.886 369.685 104.871 369.685 104.871Z" fill="#C7876D"/>
<path d="M359.178 221.279C359.721 215.436 360.327 208.921 360.696 204.871C360.712 204.686 360.822 204.607 361.027 204.629C361.223 204.643 361.31 204.743 361.294 204.921L359.776 221.329C359.76 221.493 359.658 221.571 359.477 221.571C359.265 221.571 359.163 221.471 359.178 221.279ZM367.578 241.293C366.972 239.729 364.463 238.593 363.771 238.293L366.949 227.143C367.035 226.95 366.964 226.829 366.744 226.779C366.524 226.729 366.398 226.8 366.367 227.007L361.829 242.943C361.168 240.321 357.48 239.179 357.48 239.179C354.853 240.221 352.517 241.664 350.488 243.514C352.085 245.079 360.783 244.157 361.876 243.514L361.962 243.55H362.033C362.128 243.543 362.206 243.507 362.253 243.429C364.338 243.136 367.578 241.293 367.578 241.293Z" fill="black"/>
<path d="M310.536 57.8429L236.027 104.686C235.626 104.936 235.185 105.021 234.706 104.943C234.218 104.864 233.84 104.636 233.565 104.271L226.574 95.0929C226.29 94.7286 226.196 94.3286 226.283 93.8929C226.369 93.45 226.613 93.1072 227.014 92.8572L301.484 46.0143C301.893 45.7643 302.333 45.6715 302.813 45.75C303.293 45.8286 303.67 46.0572 303.953 46.4215L310.953 55.6C311.236 55.9643 311.338 56.3643 311.259 56.8C311.173 57.2429 310.929 57.5857 310.536 57.8429Z" fill="white"/>
<path d="M235.028 105.243C234.305 105.243 233.73 104.971 233.321 104.429L226.322 95.25C226.165 95.05 226.062 94.8214 226 94.5785C225.944 94.3357 225.937 94.0857 225.992 93.8428C226.039 93.6 226.141 93.3714 226.283 93.1571C226.432 92.95 226.621 92.7714 226.849 92.6285L301.35 45.8071C301.578 45.6643 301.822 45.5643 302.089 45.5143C302.365 45.4571 302.632 45.4571 302.899 45.5C303.175 45.5428 303.418 45.6357 303.654 45.7714C303.882 45.9071 304.079 46.0785 304.229 46.2785L311.236 55.4571C311.558 55.8857 311.668 56.3571 311.566 56.8643C311.464 57.3857 311.181 57.7928 310.709 58.0857L236.247 104.907C235.877 105.136 235.476 105.25 235.028 105.243ZM302.53 45.9857C302.223 45.9857 301.948 46.0643 301.696 46.2214L227.195 93.0785C226.857 93.2857 226.652 93.5714 226.581 93.9428C226.503 94.3071 226.581 94.6357 226.817 94.9428L233.809 104.121C234.045 104.421 234.36 104.607 234.761 104.671C235.162 104.743 235.531 104.671 235.862 104.457L310.363 57.6214C310.701 57.4071 310.906 57.1214 310.976 56.7571C311.047 56.3928 310.968 56.0571 310.74 55.7571L303.741 46.5785C303.513 46.2714 303.19 46.0857 302.789 46.0214L302.53 45.9857Z" fill="black"/>
<path d="M295.302 68.5714L299.156 66.15C299.156 66.15 300.045 60.3714 301.224 60.2357C302.404 60.1 303.151 63.2 303.151 63.2C303.151 63.2 302.852 58.3571 304.488 58.2214C306.116 58.0786 306.556 65.8857 302.892 68.4357C299.235 70.9857 298.456 72.05 298.456 72.05L295.302 68.5714Z" fill="white"/>
<path d="M298.417 72.3357C298.322 72.3357 298.244 72.3072 298.188 72.2357L295.074 68.75C295.019 68.6857 294.995 68.6143 295.011 68.5357C295.019 68.4572 295.058 68.3929 295.137 68.35L298.881 65.9929C299.172 64.1357 299.942 60.1143 301.193 59.9643C301.908 59.8786 302.467 60.6143 302.844 61.4143C302.931 59.9072 303.269 58.0572 304.441 57.9643C304.763 57.9643 305.235 58.0714 305.542 58.8714C306.478 61.0357 306.069 66.5643 303.025 68.6714C299.439 71.1357 298.66 72.2143 298.652 72.2286C298.597 72.3072 298.519 72.35 298.417 72.35V72.3357ZM295.743 68.6286L298.409 71.6286C299.698 70.3572 301.122 69.2143 302.671 68.2072C305.455 66.2857 305.856 61.0357 305.007 59.0357C304.85 58.6786 304.661 58.4357 304.512 58.4786C303.584 58.55 303.332 61.2714 303.45 63.1714C303.466 63.3357 303.379 63.4357 303.19 63.45C303.009 63.4714 302.899 63.4 302.852 63.2429C302.585 62.0929 301.893 60.4357 301.264 60.4929C300.634 60.55 299.895 63.15 299.447 66.1929C299.439 66.2714 299.4 66.3357 299.321 66.3786L295.743 68.6286Z" fill="black"/>
<path d="M242.24 94.9929C242.24 95.5286 242.122 96.0429 241.894 96.5357C241.674 97.0357 241.351 97.4714 240.934 97.85C240.518 98.2286 240.03 98.5143 239.487 98.7214C238.945 98.9286 238.37 99.0286 237.781 99.0214C237.191 99.0214 236.625 98.9214 236.082 98.7143C235.539 98.5072 235.059 98.2143 234.643 97.8286C234.226 97.45 233.911 97.0143 233.683 96.5143C233.463 96.0214 233.353 95.5072 233.361 94.9714C233.361 94.4357 233.479 93.9214 233.707 93.4214C233.935 92.9286 234.257 92.4929 234.682 92.1214C235.099 91.7429 235.586 91.4572 236.129 91.2572C236.68 91.0572 237.246 90.9572 237.836 90.9572C238.426 90.9643 238.984 91.0714 239.527 91.2786C240.061 91.4857 240.541 91.7786 240.95 92.1572C241.359 92.5286 241.681 92.9643 241.902 93.4572C242.122 93.95 242.24 94.4643 242.24 94.9929Z" fill="#2F4156"/>
<path d="M243.199 89.6786C243.05 89.6857 242.956 89.6214 242.908 89.4929C242.869 89.3643 242.908 89.2643 243.034 89.1929L301.649 52.6214C301.814 52.4786 301.964 52.5 302.097 52.6643C302.223 52.8357 302.192 52.9714 301.987 53.0643L243.404 89.6357C243.341 89.6714 243.27 89.6857 243.199 89.6786ZM245.74 93.1286L304.362 56.5643C304.52 56.4643 304.543 56.3357 304.441 56.1857C304.323 56.0357 304.181 56.0143 304.016 56.1143L245.401 92.6786C245.283 92.7571 245.244 92.8572 245.291 92.9857C245.331 93.1072 245.425 93.1786 245.567 93.1786C245.63 93.1786 245.685 93.1643 245.74 93.1286Z" fill="black"/>
<path d="M240.84 75.5643C240.84 75.5643 246.156 72.6072 248.972 72.7429C251.795 72.8786 255.492 74.4857 256.231 75.5643C256.97 76.6357 253.266 75.7 253.266 75.7C253.266 75.7 257.725 79.0429 256.97 79.5929C256.215 80.1429 252.991 78.6572 252.991 78.6572C252.991 78.6572 256.255 81.0786 254.776 81.4786C253.297 81.8857 250.922 79.7286 248.256 79.5929C245.598 79.4572 240.557 79.5929 240.557 79.5929L240.84 75.5643Z" fill="white"/>
<path d="M254.343 81.8072C253.431 81.6929 252.582 81.4215 251.803 80.9786C250.686 80.3929 249.499 80.0215 248.217 79.8715C245.598 79.7357 240.596 79.8715 240.549 79.8715C240.455 79.8786 240.384 79.85 240.321 79.7857C240.258 79.7286 240.234 79.6572 240.242 79.5786L240.533 75.55C240.549 75.4572 240.596 75.3857 240.675 75.3286C240.903 75.2072 246.109 72.3286 248.988 72.4429C251.874 72.55 255.673 74.2143 256.483 75.3857C256.687 75.6 256.703 75.8286 256.53 76.0572C256.239 76.4143 255.303 76.35 254.399 76.2C255.633 77.1857 257.363 78.7072 257.356 79.4072C257.356 79.5643 257.293 79.6857 257.151 79.7786C256.664 80.1429 255.492 79.8715 254.469 79.5215C255.028 80.0786 255.523 80.7215 255.421 81.1857C255.342 81.4643 255.146 81.6429 254.831 81.7143C254.674 81.7643 254.516 81.8 254.343 81.8072ZM245.063 79.2715C246.204 79.2715 247.36 79.2715 248.241 79.3286C249.609 79.4786 250.875 79.8715 252.063 80.5C253.117 80.9715 254.029 81.3929 254.658 81.2215C254.807 81.1786 254.815 81.1286 254.823 81.1143C254.902 80.7429 253.832 79.6643 252.771 78.8643C252.637 78.7643 252.613 78.6429 252.716 78.5072C252.81 78.3715 252.936 78.3357 253.093 78.4143C254.587 79.0857 256.412 79.6357 256.774 79.3857C256.774 79.0572 255.098 77.45 253.062 75.9072C252.951 75.8143 252.928 75.7 252.991 75.5715C253.069 75.4429 253.187 75.4 253.345 75.4357C254.21 75.7072 255.098 75.8215 256.011 75.7715C256.003 75.75 256.003 75.7286 256.011 75.7072C255.374 74.7857 251.835 73.15 248.988 73.0143H248.807C246.329 73.0143 241.965 75.2857 241.155 75.7286L240.895 79.3429C241.571 79.3 243.302 79.2715 245.063 79.2715Z" fill="black"/>
<path d="M281.972 83.3143L275.759 100C275.712 100.121 275.617 100.186 275.468 100.179C275.436 100.186 275.405 100.186 275.373 100.179C275.185 100.129 275.122 100.014 275.185 99.8429L281.406 83.1714C281.468 83 281.594 82.9429 281.783 83C281.972 83.0571 282.035 83.1714 281.972 83.3429V83.3143ZM294.437 97.3C294.39 97.3357 294.335 97.35 294.272 97.35C294.162 97.35 294.083 97.3071 294.02 97.2286L291.826 94.3357C291.158 94.6571 290.442 94.8214 289.679 94.8214C289.317 94.8214 288.956 94.7786 288.602 94.7071C288.248 94.6286 287.91 94.5143 287.587 94.3643C287.265 94.2143 286.966 94.0357 286.683 93.8214C286.407 93.6071 286.164 93.3643 285.951 93.1C285.739 92.8286 285.558 92.5429 285.424 92.2357C285.283 91.9357 285.188 91.6143 285.125 91.2929C285.07 90.9643 285.055 90.6357 285.086 90.3071C285.118 89.9786 285.188 89.6571 285.298 89.3429C285.416 89.0286 285.566 88.7286 285.755 88.45C285.951 88.1714 286.171 87.9143 286.431 87.6786C286.691 87.45 286.974 87.2429 287.28 87.0714C287.595 86.9 287.925 86.7643 288.271 86.6643C288.617 86.5643 288.971 86.5 289.333 86.4786C289.695 86.45 290.057 86.4643 290.41 86.5214C290.772 86.5714 291.118 86.6643 291.456 86.7929C291.787 86.9214 292.101 87.0857 292.4 87.2786C292.691 87.4714 292.951 87.7 293.187 87.95C293.423 88.2 293.619 88.4786 293.784 88.7714C293.95 89.0714 294.067 89.3786 294.154 89.7C294.233 90.0214 294.272 90.3429 294.272 90.6786C294.264 91.0071 294.225 91.3286 294.13 91.65C294.044 91.9714 293.918 92.2786 293.753 92.5714C293.58 92.8643 293.375 93.1357 293.139 93.3857C292.904 93.6357 292.636 93.8571 292.337 94.0429L294.516 96.9357C294.618 97.0786 294.587 97.2 294.437 97.3ZM289.663 94.25C290.19 94.25 290.701 94.1572 291.189 93.9714C291.677 93.7929 292.101 93.5286 292.479 93.1929C292.848 92.85 293.139 92.4571 293.336 92.0214C293.541 91.5786 293.643 91.1143 293.643 90.6357C293.643 90.1571 293.541 89.6929 293.336 89.25C293.139 88.8071 292.848 88.4214 292.479 88.0786C292.101 87.7429 291.677 87.4786 291.189 87.3C290.701 87.1143 290.19 87.0214 289.663 87.0214C289.136 87.0214 288.625 87.1143 288.145 87.3C287.658 87.4786 287.225 87.7429 286.848 88.0786C286.478 88.4214 286.187 88.8071 285.991 89.25C285.786 89.6929 285.684 90.1571 285.684 90.6357C285.692 91.1143 285.794 91.5714 285.998 92.0143C286.203 92.45 286.494 92.8429 286.871 93.1786C287.241 93.5143 287.674 93.7714 288.161 93.95C288.649 94.1286 289.152 94.2214 289.679 94.2214L289.663 94.25Z" fill="black"/>
<path d="M166.064 96.8285C165.953 96.8357 165.843 96.8357 165.733 96.8285C164.994 96.7428 164.498 96.3857 164.239 95.75C163.987 94.9143 164.2 94.1928 164.884 93.5857C165.985 92.6357 167.29 92.1857 168.8 92.25C168.462 91.0643 167.338 90.0785 165.544 89.5643C159.591 87.7643 153.936 93.85 153.881 93.9C153.74 94.0285 153.598 94.0285 153.464 93.9C153.307 93.7714 153.307 93.6428 153.464 93.5214C153.7 93.25 159.434 87.0714 165.773 88.9928C168.085 89.7143 169.139 90.9357 169.437 92.2C170.444 92.2428 171.435 92.3785 172.41 92.6214C174.502 93.1143 176.036 93.55 177.255 93.8928C180.668 94.8571 181.384 95.0571 184.349 93.7143C184.514 93.6571 184.64 93.7071 184.718 93.85C184.805 94 184.766 94.1214 184.608 94.2071C181.423 95.65 180.511 95.3857 177.082 94.4143C175.855 94.0643 174.337 93.6357 172.261 93.15C171.364 92.9285 170.452 92.8 169.524 92.7428C169.548 93.1357 169.508 93.5285 169.406 93.9071C168.918 95.5785 167.463 96.8285 166.064 96.8285ZM168.887 92.7714C166.771 92.7714 165.702 93.5 165.332 93.9357C164.813 94.3857 164.64 94.9285 164.813 95.5643C164.986 96 165.324 96.2428 165.835 96.2857C167.007 96.45 168.384 95.3 168.785 93.8214C168.879 93.4785 168.911 93.1285 168.887 92.7714ZM201.242 95.5285C201.077 95.5285 200.912 95.5 200.762 95.45C200.188 95.3285 199.873 95 199.803 94.4714C199.905 93.5928 200.377 92.95 201.242 92.5357C201.643 92.3357 202.068 92.1857 202.516 92.0857C202.17 91.7214 201.737 91.45 201.242 91.2785C197.774 90.0143 193.77 93.9857 193.731 94.0285C193.59 94.1571 193.448 94.1571 193.306 94.0285C193.165 93.9071 193.165 93.7785 193.306 93.65C193.479 93.4785 197.64 89.3571 201.486 90.7571C202.209 90.9857 202.791 91.3857 203.224 91.9571C205.237 91.7 207.557 92.2071 209.515 92.6785C210.089 92.8 210.632 92.9285 211.104 93.0214C213.345 93.4285 214.8 92.9214 216.578 91.8928C216.743 91.8 216.884 91.8214 216.995 91.9714C217.105 92.1285 217.073 92.25 216.892 92.35C215.052 93.4285 213.408 94 210.978 93.5571C210.475 93.4643 209.924 93.3357 209.382 93.2071C207.541 92.8 205.363 92.3214 203.499 92.4857C203.648 92.9785 203.625 93.4571 203.42 93.9285C203.263 94.3714 202.988 94.7357 202.595 95.0285C202.193 95.3143 201.745 95.4857 201.242 95.5285ZM202.83 92.5785C202.374 92.6643 201.942 92.8071 201.533 93.0143C200.896 93.3285 200.526 93.8071 200.416 94.4571C200.416 94.5357 200.416 94.7928 200.974 94.9643C201.533 95.1357 202.453 94.6071 202.799 93.7928C202.988 93.3928 202.996 92.9857 202.83 92.5785Z" fill="white"/>
<path d="M260.376 203.286L271.323 162.414L279.023 162.55L268.515 203.286H260.376ZM227.667 201.986L232.393 183.65L224.702 183.521L219.739 202.043L227.667 201.986ZM256.829 202.25L261.555 183.921L253.864 183.786L248.893 202.307L256.829 202.25ZM211.387 203.693L214.336 192.264L206.637 192.136L203.546 203.693H211.387ZM239.77 203.693L247.651 173.171L239.943 173.043L231.733 203.693H239.77Z" fill="#2F4156"/>
<path d="M288.13 203.336H254.8L259.479 185.179C259.503 185.1 259.479 185.021 259.424 184.95C259.361 184.886 259.282 184.85 259.188 184.843L251.496 184.714C251.339 184.714 251.245 184.786 251.213 184.921L246.259 203.336H226.259L230.915 185.314C230.938 185.229 230.915 185.15 230.86 185.086C230.797 185.014 230.726 184.986 230.632 184.979L222.924 184.843C222.767 184.836 222.665 184.907 222.633 185.05L217.734 203.336H193.07L202.036 169.6C202.083 169.421 202.005 169.314 201.808 169.271C201.611 169.229 201.493 169.293 201.446 169.471L192.363 203.55C192.339 203.636 192.355 203.714 192.418 203.786C192.473 203.857 192.551 203.893 192.654 203.893H217.82C217.868 203.9 217.915 203.9 217.962 203.893H288.13C288.326 203.893 288.429 203.8 288.429 203.614C288.444 203.421 288.342 203.329 288.13 203.336ZM251.725 185.271L258.811 185.393L254.218 203.186L246.904 203.236L251.725 185.271ZM223.16 185.4L230.246 185.529L225.653 203.336H218.355L223.16 185.4Z" fill="black"/>
<path d="M275.885 159.836C275.9 160.014 275.814 160.107 275.609 160.129C275.428 160.129 275.334 160.05 275.318 159.886L275.067 157.529L254.855 178.136C254.792 178.207 254.713 178.236 254.619 178.229C254.516 178.229 254.438 178.186 254.383 178.107L246.432 167.557L233.062 185.993C233.007 186.079 232.912 186.121 232.802 186.114C232.684 186.107 232.606 186.064 232.543 185.979L226.574 176.279L213.518 193.857C213.463 193.936 213.393 193.979 213.29 193.979C213.204 193.979 213.125 193.95 213.07 193.893L206.165 186.829L200.172 191.693C200.031 191.779 199.897 191.764 199.779 191.643C199.669 191.529 199.669 191.407 199.771 191.286L205.984 186.229C206.047 186.186 206.126 186.157 206.204 186.157C206.283 186.164 206.354 186.193 206.409 186.25L213.259 193.243L226.361 175.593C226.424 175.507 226.511 175.457 226.621 175.457C226.739 175.457 226.825 175.507 226.88 175.593L232.865 185.271L246.133 166.886C246.196 166.807 246.274 166.764 246.385 166.764C246.487 166.771 246.565 166.814 246.628 166.886L254.634 177.486L274.524 157.25L272.133 157.979C271.929 158.071 271.787 158.021 271.708 157.821C271.638 157.621 271.708 157.507 271.937 157.464L275.122 156.45C275.208 156.414 275.295 156.414 275.381 156.45C275.46 156.5 275.507 156.564 275.515 156.65L275.885 159.836Z" fill="black"/>
<path d="M302.852 131.071L318.267 127.214C318.558 128.186 318.747 129.171 318.809 130.179C318.88 131.186 318.833 132.186 318.668 133.186C318.511 134.186 318.235 135.157 317.85 136.1C317.465 137.043 316.977 137.943 316.387 138.8C315.797 139.65 315.121 140.443 314.35 141.164C313.572 141.893 312.73 142.536 311.81 143.1C310.89 143.664 309.915 144.136 308.892 144.514C307.862 144.9 306.8 145.179 305.707 145.357C304.614 145.536 303.521 145.614 302.404 145.586C301.295 145.557 300.202 145.421 299.124 145.186C298.047 144.95 297.001 144.621 296.002 144.186C295.003 143.757 294.06 143.236 293.171 142.621C292.29 142.014 291.488 141.329 290.764 140.564C290.033 139.8 289.404 138.979 288.869 138.093C288.334 137.214 287.902 136.293 287.571 135.329C287.249 134.364 287.037 133.379 286.934 132.371C286.84 131.371 286.856 130.364 286.981 129.364C287.115 128.364 287.359 127.386 287.713 126.436C288.067 125.479 288.523 124.564 289.089 123.7C289.655 122.829 290.308 122.021 291.055 121.279C291.81 120.536 292.636 119.871 293.533 119.279C294.437 118.693 295.397 118.193 296.411 117.786C297.426 117.386 298.479 117.079 299.565 116.864C300.65 116.657 301.743 116.557 302.852 116.557C303.458 116.557 304.048 116.586 304.645 116.643L302.852 131.071Z" fill="white"/>
<path d="M305.298 128.464L308.082 114.171C309.537 114.407 310.937 114.814 312.266 115.4C313.595 115.986 314.814 116.721 315.923 117.614C317.032 118.507 317.976 119.521 318.778 120.657C319.572 121.793 320.178 123 320.603 124.286L305.298 128.464Z" fill="white"/>
<path d="M302.852 145.879C301.783 145.879 300.729 145.786 299.675 145.593C298.629 145.407 297.614 145.121 296.623 144.75C295.633 144.379 294.697 143.929 293.808 143.386C292.919 142.85 292.093 142.236 291.338 141.55C290.583 140.857 289.907 140.114 289.317 139.307C288.72 138.5 288.216 137.643 287.807 136.75C287.398 135.85 287.092 134.929 286.879 133.971C286.675 133.021 286.573 132.057 286.573 131.086C286.573 130.114 286.675 129.157 286.879 128.2C287.092 127.25 287.398 126.321 287.807 125.429C288.216 124.529 288.72 123.679 289.317 122.871C289.907 122.064 290.583 121.314 291.338 120.629C292.093 119.943 292.919 119.329 293.808 118.786C294.697 118.25 295.633 117.793 296.623 117.421C297.614 117.05 298.629 116.771 299.675 116.579C300.729 116.393 301.783 116.293 302.852 116.293C303.466 116.293 304.071 116.329 304.677 116.386C304.763 116.4 304.834 116.429 304.881 116.493C304.936 116.55 304.952 116.614 304.944 116.693L303.206 130.721L318.196 126.971C318.393 126.914 318.511 126.971 318.558 127.157C318.731 127.7 318.857 128.257 318.959 128.821C319.053 129.379 319.108 129.943 319.14 130.507C319.163 131.079 319.148 131.643 319.1 132.207C319.053 132.779 318.975 133.336 318.857 133.893C318.739 134.45 318.581 135 318.393 135.543C318.204 136.086 317.984 136.614 317.732 137.136C317.472 137.65 317.189 138.157 316.867 138.643C316.552 139.129 316.198 139.6 315.821 140.05C315.443 140.5 315.034 140.936 314.602 141.343C314.169 141.75 313.713 142.136 313.233 142.5C312.746 142.857 312.243 143.193 311.723 143.5C311.197 143.814 310.654 144.093 310.096 144.343C309.537 144.593 308.963 144.814 308.373 145.007C307.783 145.2 307.186 145.364 306.58 145.493C305.967 145.621 305.353 145.714 304.732 145.779C304.111 145.85 303.489 145.879 302.86 145.879H302.852ZM302.852 116.836C301.822 116.836 300.807 116.929 299.793 117.114C298.786 117.293 297.803 117.564 296.852 117.921C295.9 118.279 294.996 118.721 294.138 119.243C293.281 119.757 292.487 120.35 291.755 121.014C291.032 121.671 290.379 122.393 289.805 123.171C289.239 123.95 288.751 124.771 288.358 125.636C287.965 126.5 287.666 127.393 287.469 128.314C287.265 129.229 287.162 130.157 287.162 131.093C287.162 132.029 287.265 132.957 287.469 133.871C287.674 134.793 287.965 135.679 288.366 136.543C288.759 137.407 289.239 138.229 289.813 139.007C290.387 139.786 291.04 140.507 291.763 141.171C292.495 141.829 293.289 142.421 294.146 142.943C295.003 143.457 295.908 143.9 296.859 144.257C297.811 144.614 298.794 144.886 299.801 145.064C300.815 145.25 301.838 145.336 302.868 145.336C303.898 145.336 304.921 145.243 305.927 145.064C306.934 144.879 307.917 144.607 308.869 144.25C309.82 143.893 310.725 143.45 311.582 142.929C312.439 142.407 313.233 141.814 313.957 141.157C314.688 140.493 315.333 139.771 315.907 138.993C316.482 138.214 316.961 137.393 317.355 136.529C317.748 135.664 318.047 134.771 318.243 133.85C318.448 132.936 318.55 132.007 318.542 131.071C318.542 129.879 318.377 128.707 318.054 127.557L302.939 131.336C302.836 131.364 302.742 131.35 302.656 131.286C302.577 131.221 302.546 131.143 302.561 131.043L304.323 116.886C303.875 116.857 303.34 116.836 302.852 116.836ZM305.298 128.736C305.219 128.743 305.157 128.714 305.101 128.664C305.015 128.6 304.984 128.521 305.007 128.421L307.791 114.121C307.823 113.943 307.933 113.871 308.129 113.9C309.608 114.143 311.031 114.557 312.384 115.157C313.737 115.75 314.972 116.507 316.096 117.414C317.221 118.321 318.188 119.35 318.998 120.5C319.808 121.657 320.43 122.886 320.862 124.193C320.917 124.364 320.846 124.479 320.658 124.536L305.353 128.721L305.298 128.736ZM308.318 114.486L305.683 128.071L320.225 124.093C319.793 122.879 319.195 121.743 318.432 120.671C317.661 119.607 316.757 118.65 315.703 117.807C314.657 116.957 313.501 116.257 312.243 115.693C310.984 115.129 309.671 114.729 308.287 114.486H308.318Z" fill="black"/>
<path d="M334.83 113.071C334.845 113.486 334.688 113.836 334.381 114.136C334.067 114.429 333.681 114.586 333.225 114.593C332.777 114.6 332.384 114.457 332.061 114.171C331.739 113.879 331.574 113.536 331.574 113.121C331.566 112.707 331.723 112.357 332.046 112.064C332.36 111.771 332.746 111.629 333.202 111.629C333.642 111.629 334.02 111.764 334.342 112.05C334.657 112.329 334.822 112.671 334.83 113.071ZM329.206 127.729C328.766 127.729 328.389 127.871 328.082 128.15C327.767 128.436 327.618 128.771 327.618 129.171C327.618 129.571 327.767 129.914 328.082 130.193C328.389 130.479 328.766 130.614 329.206 130.614C329.647 130.614 330.024 130.479 330.331 130.193C330.646 129.914 330.795 129.571 330.795 129.171C330.787 128.779 330.63 128.443 330.323 128.157C330.016 127.879 329.639 127.736 329.206 127.729Z" fill="#2F4156"/>
<path d="M332.281 110.379C331.81 110.379 331.401 110.514 331.039 110.786C330.677 111.057 330.457 111.407 330.378 111.821H319.281C319.171 111.821 319.093 111.864 319.03 111.95L311.771 122.571C311.668 122.729 311.708 122.857 311.881 122.95C311.928 122.971 311.983 122.986 312.038 122.986C312.148 122.986 312.235 122.943 312.29 122.857L319.454 112.371H330.378C330.457 112.829 330.701 113.2 331.11 113.479C331.519 113.764 331.975 113.879 332.486 113.829C332.989 113.779 333.414 113.579 333.744 113.221C334.075 112.871 334.224 112.457 334.2 111.993C334.169 111.536 333.972 111.143 333.603 110.821C333.233 110.5 332.793 110.343 332.281 110.343V110.379ZM332.281 113.343C331.912 113.343 331.597 113.221 331.338 112.986C331.078 112.75 330.952 112.464 330.952 112.136C330.952 111.8 331.078 111.514 331.338 111.279C331.597 111.043 331.912 110.929 332.281 110.929C332.643 110.929 332.958 111.043 333.217 111.279C333.477 111.514 333.603 111.8 333.603 112.136C333.603 112.464 333.477 112.75 333.217 112.986C332.958 113.221 332.643 113.343 332.281 113.343ZM328.302 127.993C327.854 127.993 327.453 128.114 327.107 128.364C326.753 128.607 326.525 128.929 326.422 129.321C326.312 129.714 326.352 130.1 326.54 130.464C326.729 130.829 327.02 131.107 327.413 131.293L324.551 137.264H312.038C311.834 137.264 311.731 137.357 311.731 137.543C311.731 137.721 311.834 137.814 312.038 137.814H324.771C324.897 137.814 324.991 137.757 325.038 137.65L327.995 131.464C328.105 131.471 328.208 131.471 328.318 131.464C328.845 131.464 329.301 131.293 329.678 130.95C330.056 130.607 330.245 130.2 330.245 129.714C330.245 129.229 330.056 128.821 329.678 128.479C329.301 128.136 328.845 127.964 328.318 127.964L328.302 127.993ZM328.302 130.95C327.932 130.95 327.618 130.829 327.358 130.593C327.099 130.364 326.973 130.079 326.973 129.743C326.973 129.407 327.099 129.129 327.358 128.893C327.618 128.657 327.932 128.536 328.302 128.536C328.664 128.536 328.978 128.657 329.238 128.893C329.497 129.129 329.631 129.407 329.631 129.743C329.631 130.071 329.497 130.357 329.246 130.593C328.986 130.829 328.68 130.943 328.318 130.95H328.302Z" fill="black"/>
<path d="M253.415 155.757H171.797L182.941 113.843H263.765L253.415 155.757Z" fill="black"/>
<path d="M250.01 152.6H168.407L179.551 110.686H260.36L250.01 152.6Z" fill="white"/>
<path d="M250.01 152.871H168.407C168.313 152.871 168.234 152.836 168.171 152.764C168.108 152.7 168.093 152.621 168.116 152.536L179.252 110.621C179.292 110.486 179.386 110.414 179.543 110.414H260.36C260.454 110.414 260.533 110.45 260.588 110.521C260.659 110.586 260.674 110.664 260.659 110.743L250.309 152.693C250.262 152.821 250.16 152.879 250.01 152.871ZM168.785 152.321H249.774L259.99 110.929H179.756L168.785 152.321Z" fill="black"/>
<path d="M266.298 141.036C266.298 141.743 266.219 142.443 266.07 143.136C265.92 143.829 265.692 144.5 265.393 145.157C265.094 145.807 264.733 146.429 264.3 147.014C263.867 147.6 263.38 148.143 262.829 148.643C262.279 149.143 261.681 149.593 261.028 149.986C260.383 150.379 259.699 150.707 258.984 150.979C258.268 151.25 257.521 151.45 256.758 151.593C255.995 151.729 255.224 151.8 254.446 151.8C253.675 151.8 252.904 151.729 252.141 151.593C251.378 151.45 250.631 151.25 249.916 150.979C249.2 150.707 248.516 150.379 247.871 149.986C247.218 149.593 246.62 149.143 246.07 148.643C245.519 148.143 245.032 147.6 244.599 147.014C244.167 146.429 243.805 145.807 243.506 145.157C243.207 144.5 242.979 143.829 242.83 143.136C242.68 142.443 242.602 141.743 242.602 141.036C242.602 140.329 242.68 139.629 242.83 138.936C242.979 138.243 243.207 137.571 243.506 136.921C243.805 136.264 244.167 135.65 244.599 135.057C245.032 134.471 245.519 133.929 246.07 133.429C246.62 132.929 247.218 132.486 247.871 132.093C248.516 131.7 249.2 131.364 249.916 131.1C250.631 130.829 251.378 130.621 252.141 130.486C252.904 130.35 253.675 130.279 254.446 130.279C255.224 130.279 255.995 130.35 256.758 130.486C257.521 130.621 258.268 130.829 258.984 131.1C259.699 131.364 260.383 131.7 261.028 132.093C261.681 132.486 262.279 132.929 262.829 133.429C263.38 133.929 263.867 134.471 264.3 135.057C264.733 135.65 265.094 136.264 265.393 136.921C265.692 137.571 265.92 138.243 266.07 138.936C266.219 139.629 266.298 140.329 266.298 141.036Z" fill="#2F4156"/>
<path d="M258.881 143.257C258.834 143.264 258.795 143.264 258.748 143.257C258.559 143.257 258.441 143.179 258.37 143.021L255.751 136.564L253.659 146.329C253.62 146.521 253.486 146.614 253.274 146.614H253.195C252.936 146.571 252.826 146.429 252.873 146.193L254.996 136.286L249.695 140.871C249.507 141.05 249.318 141.05 249.137 140.871C248.948 140.7 248.948 140.536 249.137 140.364L255.358 134.986C255.452 134.893 255.578 134.864 255.712 134.893C255.853 134.929 255.948 135 256.003 135.129L259.109 142.786C259.212 143.014 259.133 143.171 258.881 143.257Z" fill="white"/>
<path d="M208.123 148.964H175.501L184.254 115.229H215.28L208.123 148.964Z" fill="black"/>
<path d="M212.417 117.564L196.413 131.907L206.598 146.821C206.708 146.971 206.676 147.1 206.503 147.193C206.456 147.214 206.401 147.229 206.346 147.229C206.236 147.236 206.149 147.193 206.094 147.107L195.98 132.293L179.119 147.414C179.064 147.464 178.993 147.493 178.914 147.493C178.828 147.493 178.757 147.464 178.694 147.414C178.552 147.286 178.552 147.157 178.694 147.029L195.666 131.793L185.811 117.343C185.733 117.193 185.772 117.079 185.922 116.993C186.079 116.907 186.205 116.929 186.323 117.057L196.106 131.386L212.016 117.136C212.158 117 212.299 117 212.441 117.136C212.512 117.193 212.551 117.264 212.543 117.357C212.543 117.443 212.496 117.514 212.417 117.564Z" fill="white"/>
<path d="M249.546 122.507C249.467 122.343 249.334 122.293 249.153 122.364C242.665 124.85 240.848 123.664 240.4 123.036C240.297 122.907 240.227 122.771 240.179 122.621C241.021 122.543 241.729 122.221 242.303 121.65C242.421 121.457 242.602 120.929 241.76 120.5C241.485 120.35 241.194 120.307 240.887 120.357C240.573 120.407 240.321 120.543 240.116 120.771C239.723 121.171 239.527 121.643 239.519 122.179C237.875 122.407 236.294 122.207 234.792 121.571C234.328 121.35 233.84 121.2 233.329 121.121C232.857 120.036 231.992 119.371 230.742 119.129C226.165 117.886 221.029 123.15 220.801 123.379C220.667 123.507 220.667 123.636 220.801 123.764C220.943 123.893 221.084 123.893 221.226 123.764C221.273 123.714 226.33 118.536 230.53 119.686C231.489 119.864 232.189 120.343 232.637 121.129C231.78 121.129 230.994 121.343 230.286 121.771C229.586 122.136 229.232 122.679 229.24 123.414C229.342 123.936 229.672 124.264 230.231 124.4C230.459 124.479 230.687 124.521 230.931 124.521C231.489 124.514 231.977 124.336 232.386 124C233.125 123.4 233.471 122.65 233.424 121.75C233.793 121.821 234.147 121.943 234.485 122.107C236.105 122.786 237.796 123 239.566 122.764C239.621 122.993 239.731 123.207 239.88 123.4C240.58 124.314 242.743 125.464 249.428 122.921C249.64 122.829 249.68 122.686 249.546 122.507ZM231.984 123.536C231.528 123.921 231.017 124.021 230.427 123.843C230.176 123.75 229.853 123.586 229.814 123.3C229.861 122.793 230.121 122.414 230.616 122.171C231.214 121.8 231.882 121.621 232.606 121.621H232.795C232.889 122.386 232.621 123.029 231.984 123.536ZM240.525 121.136C240.675 120.979 240.864 120.886 241.092 120.879C241.21 120.879 241.32 120.907 241.414 120.971C241.855 121.2 241.768 121.336 241.744 121.386C241.288 121.793 240.738 122.036 240.093 122.107C240.116 121.736 240.258 121.414 240.525 121.136ZM242.468 131.357C242.468 131.536 242.366 131.629 242.161 131.629H219.535C219.338 131.629 219.236 131.536 219.236 131.357C219.22 131.164 219.322 131.064 219.535 131.071H242.185C242.381 131.079 242.476 131.171 242.468 131.357ZM241.579 136.193C241.579 136.371 241.477 136.464 241.28 136.471H218.63C218.426 136.471 218.332 136.379 218.332 136.193C218.332 136.014 218.426 135.921 218.63 135.921H241.28C241.477 135.929 241.579 136.014 241.579 136.193ZM240.84 141.443C240.832 141.621 240.73 141.707 240.533 141.707H217.891C217.655 141.743 217.537 141.657 217.537 141.436C217.537 141.221 217.655 141.136 217.891 141.164H240.533C240.738 141.164 240.84 141.257 240.84 141.443ZM240.093 145.879C240.093 146.057 239.991 146.15 239.794 146.143H217.152C216.916 146.179 216.798 146.093 216.798 145.879C216.798 145.657 216.916 145.571 217.152 145.607H239.794C239.998 145.607 240.093 145.693 240.093 145.879Z" fill="black"/>
<path d="M259.778 30.2643C259.778 30.2643 262.743 42.6215 254.894 41.95L255.342 47.4643L254.155 51.8L247.493 46.5286C248.602 43.3 248.602 40.0714 247.493 36.8429C247.493 36.8429 244.088 37.9214 244.387 34.4214C244.678 30.9286 247.493 32.8 247.493 32.8C247.493 32.8 250.458 29.9714 250.749 27.4214C250.749 27.4357 255.342 30.7929 259.778 30.2643Z" fill="white"/>
<path d="M254.155 52.0429C254.076 52.0429 254.013 52.0214 253.958 51.9786L247.297 46.7286C247.187 46.6429 247.163 46.5429 247.218 46.4286C248.256 43.35 248.28 40.2643 247.289 37.1786C246.455 37.3929 245.677 37.2929 244.945 36.8714C244.277 36.4 243.986 35.5714 244.088 34.4C244.19 33.2286 244.591 32.45 245.291 32.1643C246.062 31.9357 246.786 32.0357 247.446 32.4572C248.06 31.8214 250.207 29.4929 250.458 27.4C250.466 27.2929 250.529 27.2143 250.639 27.1786C250.749 27.1357 250.852 27.15 250.938 27.2214C250.977 27.2214 255.484 30.5 259.739 29.9786C259.927 29.9572 260.037 30.0286 260.077 30.1929C260.148 30.5072 261.87 37.8786 258.881 40.9429C257.898 41.9357 256.679 42.3643 255.224 42.2429L255.641 47.4357C255.649 47.4643 255.649 47.4929 255.641 47.5214L254.454 51.8572C254.43 51.9643 254.359 52.0286 254.249 52.0572L254.155 52.0429ZM247.847 46.4429L253.982 51.2714L255.036 47.4429L254.603 41.9714C254.595 41.8929 254.619 41.8143 254.689 41.7572C254.752 41.6929 254.831 41.6714 254.925 41.6857C256.31 41.8786 257.481 41.5143 258.433 40.5857C260.934 38.0286 259.809 31.85 259.542 30.5572C255.846 30.8857 252.173 28.7214 250.97 27.9286C250.419 30.4 247.832 32.8929 247.714 32.9857C247.58 33.0929 247.454 33.0929 247.32 32.9857C247.32 32.9857 246.282 32.3072 245.535 32.6143C245.063 32.8143 244.741 33.4357 244.686 34.4C244.497 35.1714 244.701 35.8357 245.307 36.3929C245.983 36.7286 246.675 36.7786 247.399 36.55C247.478 36.5143 247.556 36.5143 247.627 36.55C247.706 36.5857 247.761 36.6357 247.784 36.7143C248.893 39.95 248.917 43.1929 247.847 46.4429Z" fill="black"/>
<path d="M219.794 231.643H148.628L152.607 214.443H224.576L219.794 231.643Z" fill="black"/>
<path d="M217.152 228.693H145.969L149.941 211.486H221.926L217.152 228.693Z" fill="white"/>
<path d="M217.152 228.964H145.97C145.867 228.964 145.797 228.929 145.734 228.864C145.679 228.793 145.655 228.721 145.671 228.636L149.65 211.429C149.674 211.279 149.776 211.207 149.933 211.207H221.926C222.02 211.214 222.099 211.243 222.162 211.314C222.225 211.386 222.24 211.464 222.209 211.55L217.435 228.757C217.404 228.893 217.301 228.964 217.152 228.964ZM146.339 228.414H216.892L221.517 211.75H150.193L146.339 228.414Z" fill="black"/>
<path d="M170.012 213.043C169.87 212.921 169.721 212.921 169.579 213.043L167.471 214.764L167.566 213.95C167.573 213.864 167.542 213.793 167.479 213.736C167.424 213.664 167.345 213.636 167.251 213.65L162.658 213.921C162.485 213.929 162.391 214.014 162.383 214.171L162.084 217.536C162.076 217.714 162.171 217.807 162.367 217.821L166.803 218.1C166.984 218.1 167.086 218.014 167.109 217.85L167.361 215.579L169.972 213.45C170.137 213.329 170.153 213.193 170.012 213.043ZM166.559 217.514L162.705 217.279L162.949 214.429L166.929 214.193L166.803 215.286L165.489 216.343L164.207 215.293C164.058 215.129 163.909 215.121 163.751 215.286C163.594 215.443 163.61 215.579 163.814 215.7L165.293 216.907C165.426 217.021 165.56 217.021 165.686 216.907L166.716 216.071L166.559 217.514ZM169.131 220.021L167.023 221.736L167.125 220.921C167.125 220.843 167.102 220.764 167.039 220.707C166.976 220.643 166.897 220.614 166.803 220.621L162.21 220.886C162.037 220.9 161.95 220.986 161.935 221.136L161.636 224.5C161.62 224.686 161.714 224.779 161.919 224.793L166.354 225.064C166.535 225.064 166.638 224.979 166.653 224.814L166.913 222.543L169.516 220.421C169.689 220.3 169.705 220.171 169.555 220.021C169.406 219.871 169.256 219.871 169.107 220.021H169.131ZM166.111 224.5L162.249 224.293L162.509 221.443L166.488 221.207L166.362 222.3L165.041 223.371L163.767 222.321C163.625 222.2 163.484 222.2 163.342 222.321C163.201 222.45 163.201 222.579 163.342 222.707L164.821 223.921C164.955 224.021 165.088 224.021 165.222 223.921L166.244 223.086L166.111 224.5Z" fill="black"/>
<path d="M206.81 215.921H173.629C173.425 215.921 173.33 215.829 173.338 215.65C173.33 215.464 173.425 215.371 173.629 215.379H206.81C207.007 215.379 207.101 215.471 207.101 215.65C207.101 215.829 207.007 215.914 206.81 215.921ZM206.511 222.236C206.511 222.057 206.409 221.964 206.212 221.964H173.039C172.843 221.964 172.741 222.057 172.741 222.236C172.741 222.421 172.843 222.514 173.039 222.514H206.196C206.393 222.514 206.495 222.421 206.495 222.236H206.511Z" fill="black"/>
<path d="M158.797 133.436C158.427 131.171 157.365 129.214 155.619 127.571C155.619 118.05 153.433 114.2 151.947 112.693C151.616 112.35 151.207 112.179 150.704 112.164C150.216 112.143 149.792 112.293 149.446 112.607C148.203 113.7 147.314 115.807 146.669 118.321C146.646 118.343 146.63 118.364 146.607 118.393C146.575 118.457 146.575 118.529 146.607 118.6C145.962 121.464 145.537 124.357 145.34 127.271C143.374 128.957 142.195 131.014 141.786 133.443C141.243 137.314 141.243 139.621 145.395 134.843C145.773 135.379 146.308 135.729 146.984 135.893C146.803 136.329 146.819 136.757 147.031 137.179C147.377 137.643 147.857 137.864 148.47 137.843H148.934C149.729 137.893 150.429 137.936 151.066 137.936C152.175 137.936 153.008 137.793 153.276 137.214C153.496 136.771 153.598 136.314 153.582 135.829C154.306 135.643 154.841 135.243 155.171 134.621C159.347 139.671 159.347 137.35 158.797 133.436ZM149.823 113.007C150.043 112.814 150.311 112.714 150.617 112.721C150.94 112.729 151.199 112.843 151.42 113.057C152.104 113.779 153.205 115.293 153.991 118.429C151.719 119.1 149.454 119.086 147.189 118.371C147.849 115.986 148.73 114.007 149.823 113.007ZM148.895 137.329H148.423C148.03 137.357 147.708 137.229 147.472 136.943C147.33 136.636 147.33 136.336 147.472 136.029C148.455 136.157 149.438 136.229 150.429 136.236C151.247 136.236 152.057 136.179 152.867 136.05C152.867 136.414 152.78 136.757 152.615 137.086C152.387 137.579 150.444 137.429 148.895 137.321V137.329ZM154.676 133.9C154.628 134.286 154.455 134.621 154.157 134.9C153.866 135.186 153.512 135.364 153.087 135.429C151.16 135.75 149.241 135.75 147.322 135.429C146.835 135.379 146.418 135.193 146.087 134.871C145.749 134.543 145.576 134.157 145.561 133.707C145.608 131.014 145.836 124.15 147.078 118.914C148.211 119.286 149.383 119.464 150.586 119.45C151.797 119.443 152.985 119.279 154.141 118.957C154.904 122.157 155.289 126.9 154.676 133.893V133.9ZM150.319 121.057C149.98 121.057 149.658 121.114 149.351 121.229C149.045 121.35 148.769 121.514 148.533 121.729C148.297 121.943 148.117 122.193 147.991 122.471C147.857 122.75 147.794 123.043 147.794 123.35C147.794 123.65 147.857 123.943 147.991 124.221C148.117 124.507 148.297 124.75 148.533 124.964C148.769 125.186 149.045 125.35 149.351 125.464C149.658 125.579 149.98 125.636 150.319 125.636C150.649 125.636 150.971 125.579 151.286 125.464C151.593 125.35 151.868 125.186 152.104 124.964C152.34 124.75 152.521 124.507 152.647 124.221C152.772 123.943 152.843 123.65 152.843 123.35C152.835 123.043 152.772 122.75 152.647 122.471C152.521 122.193 152.332 121.943 152.096 121.729C151.86 121.514 151.593 121.35 151.278 121.236C150.971 121.114 150.649 121.057 150.319 121.057ZM150.319 125.1C149.784 125.1 149.336 124.929 148.958 124.586C148.581 124.243 148.392 123.829 148.392 123.35C148.392 122.864 148.581 122.45 148.958 122.114C149.336 121.771 149.784 121.6 150.319 121.6C150.853 121.6 151.302 121.771 151.679 122.114C152.057 122.45 152.245 122.864 152.245 123.35C152.245 123.829 152.057 124.243 151.679 124.586C151.302 124.929 150.853 125.1 150.319 125.1Z" fill="black"/>
<path d="M169.941 173.707H169.894C166.252 173.121 161.14 171.914 158.372 168.236C157.184 166.65 156.65 164.893 156.775 162.979C155.918 162.857 155.124 162.586 154.392 162.157C152.238 160.807 151.247 158.471 150.806 156.75C149.54 151.4 149.155 146 149.65 140.55C149.658 140.364 149.76 140.279 149.965 140.3C150.169 140.307 150.264 140.407 150.248 140.593C149.76 145.986 150.138 151.329 151.38 156.621C151.805 158.25 152.733 160.464 154.731 161.686C155.383 162.057 156.083 162.293 156.838 162.407C157.019 161.243 157.491 160.193 158.278 159.257C158.663 158.771 159.158 158.414 159.764 158.186C160.377 157.964 161.007 157.9 161.659 158C162.155 158.064 162.595 158.243 162.988 158.529C163.374 158.814 163.657 159.171 163.83 159.6C163.94 160.014 163.924 160.429 163.767 160.836C163.61 161.236 163.35 161.571 162.973 161.836C161.714 162.929 159.418 163.279 157.405 163.086C157.302 164.857 157.79 166.486 158.883 167.964C161.494 171.464 166.496 172.629 170.027 173.2C170.2 173.236 170.279 173.336 170.255 173.493C170.24 173.657 170.145 173.736 169.972 173.743L169.941 173.707ZM157.475 162.521C159.355 162.707 161.455 162.386 162.603 161.429C163.224 161.007 163.452 160.443 163.295 159.75C162.996 159.036 162.422 158.629 161.581 158.529C161.046 158.443 160.527 158.493 160.016 158.686C159.512 158.879 159.103 159.171 158.789 159.579C158.073 160.457 157.633 161.436 157.475 162.521Z" fill="black"/>
<path d="M301.806 230.679C301.806 230.679 301.806 230.679 301.806 230.721C301.413 232.986 300.603 235.121 299.368 237.121C298.133 239.121 296.561 240.871 294.642 242.364L283.639 230.686L286.203 214.171C296.246 214.171 303.23 221.557 301.806 230.679ZM269.978 216.843C267.91 218.45 266.219 220.336 264.89 222.493C263.569 224.657 262.688 226.957 262.271 229.4L281.846 229.443L284.614 211.65C281.917 211.693 279.306 212.157 276.797 213.05C274.288 213.943 272.023 215.207 270.01 216.843H269.978ZM282.64 231.514L264.473 231.471V231.514C263.05 240.629 270.041 248.021 280.076 248.021C282.585 247.986 285.007 247.55 287.343 246.721C289.687 245.893 291.787 244.721 293.659 243.2L282.64 231.514Z" fill="#2F4156"/>
<path d="M115.463 114.15C115.463 114.15 120.937 129.479 111.908 128.936L110.579 132.836L102.29 129.879L104.798 111.093L115.463 114.15Z" fill="#A36357"/>
<path d="M97.8461 134.514L100.135 129.271L114.724 134.329L112.49 139.393" fill="white"/>
<path d="M112.498 139.629C112.458 139.636 112.419 139.636 112.38 139.629C112.199 139.557 112.144 139.443 112.223 139.271L114.322 134.493L100.308 129.629L98.1214 134.614C98.0506 134.786 97.9247 134.836 97.736 134.771C97.5472 134.707 97.4922 134.586 97.5708 134.421L99.8594 129.171C99.9302 129.007 100.056 128.957 100.245 129.021L114.826 134.079C114.904 134.107 114.959 134.157 114.991 134.221C115.022 134.293 115.022 134.364 114.991 134.443L112.773 139.5C112.71 139.586 112.616 139.629 112.498 139.629Z" fill="black"/>
<path d="M106.434 107.693C106.434 107.693 110.72 105.807 113.536 108.1C116.351 110.393 117.822 114.15 117.822 114.15L110.131 115.357L108.503 112.807C108.66 115.914 108.463 119.007 107.913 122.086C107.016 125.979 110.422 129.207 113.245 130.55C113.245 130.55 97.3978 131.757 91.1769 128.807C91.1769 128.807 95.0306 125.979 94.5823 122.35C94.1419 118.721 92.1993 112.236 95.7699 109.714C99.3404 107.193 102.29 106.757 106.434 107.693Z" fill="#FFE2CC"/>
<path d="M105.892 131.071C100.866 131.071 94.5272 130.7 91.0432 129.043C90.9489 128.993 90.8938 128.921 90.8859 128.829C90.8781 128.729 90.9174 128.65 90.996 128.586C90.996 128.586 94.7081 125.814 94.2913 122.379C94.2127 121.757 94.0947 121.05 93.961 120.3C93.3476 116.686 92.506 111.714 95.5575 109.457C98.9865 106.993 102.022 106.4 106.371 107.371C107.063 107.086 110.98 105.65 113.701 107.857C115.652 109.621 117.114 111.679 118.082 114.021C118.113 114.093 118.113 114.171 118.082 114.25C118.034 114.321 117.964 114.364 117.869 114.379L110.17 115.586C110.028 115.614 109.926 115.571 109.863 115.457L108.825 113.836C108.919 116.607 108.715 119.364 108.196 122.1C107.402 125.629 110.311 128.814 113.371 130.271C113.504 130.336 113.552 130.436 113.52 130.564C113.497 130.7 113.41 130.771 113.261 130.786C112.978 130.843 109.847 131.071 105.892 131.071ZM91.7196 128.736C97.1068 131.007 108.809 130.536 112.246 130.343C109.336 128.636 106.82 125.5 107.614 122.029C108.157 118.979 108.353 115.907 108.204 112.821C108.196 112.679 108.267 112.586 108.416 112.543C108.566 112.5 108.683 112.543 108.762 112.664L110.28 115.057L117.445 113.943C116.524 111.8 115.164 109.921 113.371 108.3C110.736 106.136 106.631 107.921 106.592 107.943C106.521 107.964 106.458 107.964 106.395 107.943C102.14 106.979 99.3246 107.514 95.9901 109.914C93.1824 111.921 93.9924 116.707 94.5902 120.207C94.716 120.964 94.8418 121.65 94.9205 122.307C95.2665 125.436 92.6791 127.929 91.7196 128.736Z" fill="black"/>
<path d="M124.303 165.621C127.936 172.35 131.357 182.2 120.937 183.25C119.324 183.421 117.72 183.436 116.108 183.293L90.4377 183.521C90.4377 183.521 91.0354 151.386 91.3264 146.821C91.6252 142.25 95.18 133.086 100.205 133.643C105.412 134.329 109.918 136.314 113.733 139.6L118.066 137.207L124.861 143.521L120.929 148.336C121.786 149.371 122.266 149.914 122.266 149.914L136.917 143.057L142.989 151.521C142.989 151.521 132.49 161.979 124.303 165.621Z" fill="#2F4156"/>
<path d="M118.86 137.943C119.545 137.507 120.182 137.029 120.787 136.5C121.298 135.964 123.744 130.25 123.894 129.993C124.043 129.743 129.517 128.314 131.223 128.45C132.922 128.586 128.109 130.136 127.527 131.2C127.087 132.336 126.843 133.5 126.78 134.7C126.78 134.7 129.965 131.2 130.704 131.279C131.444 131.35 128.557 137.45 126.929 138.464C125.294 139.479 123.453 142.293 123.453 142.293L118.86 137.943ZM141.77 150.143C141.77 150.143 148.101 145.207 149.65 143.486C150.256 142.9 150.625 142.214 150.743 141.414C150.869 140.621 150.728 139.864 150.319 139.15C149.76 137.943 150.539 134.514 149.524 134.421C148.502 134.321 146.339 140.564 145.081 140.564C143.822 140.564 146.087 134.914 145.498 134.643C144.908 134.364 143.642 137.643 141.872 139.757C140.787 141.043 140.15 142.486 139.977 144.093L138.089 144.5L141.77 150.143Z" fill="#A36357"/>
<path d="M119.647 167.071C118.86 167.1 118.105 166.971 117.39 166.686C108.4 162.671 100.19 151.786 100.111 151.671C100.001 151.529 100.025 151.407 100.19 151.307C100.355 151.2 100.496 151.229 100.607 151.379C100.685 151.486 108.809 162.214 117.665 166.207C117.665 166.207 119.977 167.264 124.027 165.536C124.224 165.414 124.373 165.45 124.476 165.643C124.57 165.836 124.507 165.964 124.287 166.029C122.824 166.693 121.283 167.043 119.647 167.071Z" fill="black"/>
<mask id="mask0_483_1253" style="mask-type:luminance" maskUnits="userSpaceOnUse" x="98" y="254" width="27" height="13">
<path d="M98.7742 254.171H124.948V266.664H98.7742V254.171Z" fill="white"/>
</mask>
<g mask="url(#mask0_483_1253)">
<path d="M108.794 255.207L108.471 259.043C108.471 259.043 124.562 263.479 123.453 264.986C122.336 266.5 100.135 265.193 100.135 265.193V254.707L108.794 255.207Z" fill="black"/>
</g>
<mask id="mask1_483_1253" style="mask-type:luminance" maskUnits="userSpaceOnUse" x="59" y="217" width="16" height="29">
<path d="M59.176 217.6H74.6141V245.029H59.176V217.6Z" fill="white"/>
</mask>
<g mask="url(#mask1_483_1253)">
<path d="M73.8277 226.671L67.7248 228.793C67.7248 228.793 65.2789 243.614 63.3914 243.8C61.496 243.986 59.6164 224.964 59.6164 224.964L71.9402 218.743L73.8277 226.671Z" fill="black"/>
</g>
<path d="M114.487 255.178L97.7825 254.262L93.3684 183.767L118.297 183.354L114.487 255.178Z" fill="white" stroke="black" stroke-width="0.5"/>
<path d="M114.724 255.714L97.5551 254.779C97.3743 254.764 97.2799 254.679 97.272 254.514L92.8128 183.536C92.7971 183.343 92.8993 183.25 93.1038 183.243L118.561 182.843C118.656 182.836 118.727 182.864 118.782 182.929C118.845 182.986 118.868 183.05 118.868 183.129L115.015 255.457C115.015 255.529 114.983 255.593 114.92 255.643C114.865 255.693 114.802 255.714 114.724 255.714ZM97.8304 254.271L114.433 255.179L118.255 183.421L93.4262 183.821L97.8304 254.271Z" fill="black"/>
<path d="M301.224 218.207C301.098 218.207 301.004 218.15 300.957 218.043C300.87 217.879 300.925 217.757 301.106 217.686C301.397 217.571 327.571 207.107 331.511 193.771C324.842 198.293 320.146 196.664 318.196 195.593C317.158 194.964 316.269 194.193 315.514 193.286C314.767 192.379 314.201 191.386 313.815 190.3C313.438 189.221 313.257 188.114 313.289 186.986C313.312 185.85 313.54 184.75 313.981 183.686C315.766 179.757 320.343 177.35 324.606 178.086C329.482 178.921 332.486 183.471 332.612 190.236C332.628 190.957 332.572 191.686 332.447 192.4C333.799 191.35 335.066 190.214 336.23 188.993C343.819 181.129 346.06 173.857 346.571 169.15C346.973 166.314 346.76 163.514 345.934 160.757C345.864 160.586 345.927 160.471 346.115 160.414C346.304 160.35 346.43 160.414 346.493 160.586C347.366 163.414 347.594 166.293 347.169 169.207C346.634 173.993 344.361 181.379 336.67 189.35C335.317 190.764 333.847 192.064 332.25 193.25C330.929 198.736 325.73 204.493 317.04 210.064C312.077 213.207 306.84 215.914 301.326 218.193C301.295 218.2 301.264 218.207 301.224 218.207ZM323.048 178.5C322.128 178.529 321.232 178.671 320.359 178.936C319.478 179.2 318.668 179.571 317.913 180.05C317.158 180.529 316.489 181.093 315.915 181.743C315.333 182.4 314.877 183.114 314.531 183.886C314.122 184.893 313.902 185.929 313.878 187C313.855 188.071 314.02 189.114 314.382 190.136C314.743 191.15 315.278 192.093 315.978 192.95C316.686 193.807 317.528 194.529 318.503 195.136C322.215 197.229 326.871 196.407 331.731 192.921C331.928 192.036 332.022 191.15 332.006 190.25C331.88 183.743 329.073 179.407 324.488 178.621C324.016 178.536 323.536 178.5 323.048 178.5Z" fill="black"/>
</svg>
